# xmcd
#
# Track frame offsets:
#	182
#	14362
#	29120
#	40240
#	51187
#	63630
#	78962
#	92797
#	105860
#	119962
#	132245
#	146300
#	159280
#	172212
#	182455
#	196962
#	208955
#	221420
#	234392
#	246700
#	260405
#
# Disc length: 3634 seconds
# Revision: 3
# Processed by: cddbd v1.5.2PL0 Copyright (c) Steve Scherf et al.
# Submitted via: dBpowerAMP V12.0
#
DISCID=370e3015
DTITLE=Various Artist - Chicago Blues
DYEAR=1994
DGENRE=Blues
TTITLE0=John Brim - Tough Times
TTITLE1=Robert Nighthawk - Anna Lee
TTITLE2=Johnny Shines - So Glad I Found You
TTITLE3=Memphis Slim - Having Fun
TTITLE4=Jimmy Rogers - Goin' Away Baby
TTITLE5=Floyd Jones - Dark Road
TTITLE6=Elmore James - Dust My Broom
TTITLE7=J.B. Lenoir - Eisenhower Blues
TTITLE8=Big Bill Broozy and Washboard Sam - By Myself
TTITLE9=Big Boy Spires - Murmur Low
TTITLE10=Elmore James - I See My Baby
TTITLE11=J.B. Lenoir - Korea Blues
TTITLE12=Floyd Jones - You Can't Live Long
TTITLE13=Otis Rush - I Can't Stop
TTITLE14=Eddie Boyd - Third Degree
TTITLE15=Buddy Guy - Ten Years Ago
TTITLE16=John Brim - Be Careful
TTITLE17=Robert Nighthawk - Jackson Town Gal
TTITLE18=Otis Rush - You Know My Love
TTITLE19=Buddy Guy - My Time After a While
TTITLE20=Jimmy Rogers - Chicago Bound
EXTD=
EXTT0=
EXTT1=
EXTT2=
EXTT3=
EXTT4=
EXTT5=
EXTT6=
EXTT7=
EXTT8=
EXTT9=
EXTT10=
EXTT11=
EXTT12=
EXTT13=
EXTT14=
EXTT15=
EXTT16=
EXTT17=
EXTT18=
EXTT19=
EXTT20=
PLAYORDER=
